<?xml version="1.0" standalone="no"?>
<!DOCTYPE svg PUBLIC "-//W3C//DTD SVG 20010904//EN"
 "http://www.w3.org/TR/2001/REC-SVG-20010904/DTD/svg10.dtd">
<svg version="1.0" xmlns="http://www.w3.org/2000/svg"
 width="500.000000pt" height="500.000000pt" viewBox="0 0 500.000000 500.000000"
 preserveAspectRatio="xMidYMid meet">
<metadata>
Created by potrace 1.11, written by Peter Selinger 2001-2013
</metadata>
<g transform="translate(0.000000,500.000000) scale(0.100000,-0.100000)"
fill="#000000" stroke="none">
<path d="M890 4072 c-126 -46 -213 -119 -266 -224 -42 -82 -54 -142 -54 -271
l0 -117 43 -26 c23 -14 204 -118 402 -233 198 -114 560 -323 804 -464 244
-142 445 -256 446 -255 7 8 80 134 241 413 97 171 292 508 431 749 139 242
253 443 253 448 0 4 -501 8 -1112 7 l-1113 0 -75 -27z"/>
<path d="M4007 3857 c-75 -133 -182 -318 -236 -412 -167 -290 -392 -681 -663
-1152 -143 -249 -265 -453 -271 -453 -5 0 -190 104 -411 232 -820 473 -1555
898 -1699 982 -82 47 -151 86 -153 86 -2 0 -4 -54 -4 -119 l0 -119 307 -178
c170 -97 650 -375 1068 -617 418 -241 822 -475 898 -519 75 -44 143 -78 150
-75 6 2 31 38 53 78 23 41 116 202 206 359 1171 2031 1178 2044 1178 2098 l0
52 -142 0 -143 -1 -138 -242z"/>
<path d="M570 1943 c0 -509 3 -648 14 -690 43 -160 150 -272 316 -328 l74 -25
1250 0 c815 0 1247 3 1240 10 -5 5 -205 123 -444 261 -239 138 -626 362 -860
497 -234 135 -621 359 -860 497 -703 407 -717 415 -724 415 -3 0 -6 -287 -6
-637z"/>
<path d="M4359 2220 c-37 -63 -117 -203 -179 -310 -207 -359 -307 -534 -439
-762 -72 -124 -131 -231 -131 -237 0 -8 66 -11 208 -11 196 0 213 2 282 25
171 58 285 181 319 345 9 39 11 203 9 560 l-3 505 -66 -115z"/>
</g>
</svg>
