<svg xmlns="http://www.w3.org/2000/svg" viewBox="0 0 45 45"  width='45' height='45'><circle cx="22.4" cy="22.5" r="22.5" fill="#f4f4f4"/><circle cx="22.4" cy="22.5" r="20" fill="none" stroke="#000" stroke-miterlimit="10" stroke-width='1.2'/><path fill="none" stroke="#000" stroke-linecap="round" stroke-linejoin="round" stroke-miterlimit="10" stroke-width="1.001" d="M12.3 30V11.7c0-.4.3-.7.7-.7h4.4c.4 0 .7.3.7.7V19"/><ellipse cx="15.2" cy="30" fill="none" stroke="#000" stroke-miterlimit="10" rx="1.1" ry="1.1"/><path fill="none" stroke="#000" stroke-linecap="round" stroke-linejoin="round" stroke-miterlimit="10" stroke-width="1.001" d="M13.6 32.6c-1.4-.8-1.9-2.6-1.1-4l9.1-15.9c.2-.3.7-.5 1-.3l3.8 2.2c.3.2.5.7.3 1L23.1 22"/><path fill="none" stroke="#000" stroke-linecap="round" stroke-linejoin="round" stroke-miterlimit="10" stroke-width="1.001" d="M15.2 27.1h18.3c.4 0 .7.3.7.7v4.4c0 .4-.3.7-.7.7H15.2c-1.6 0-2.9-1.3-2.9-2.9 0-1.6 1.3-2.9 2.9-2.9z"/><path fill="none" stroke="#000" stroke-linecap="round" stroke-linejoin="round" stroke-miterlimit="10" stroke-width="1.001" d="M13.6 27.2l16.1-8.7c.4-.2.8-.1 1 .3l2.1 3.9c.2.4.1.8-.3 1l-6.3 3.4"/><g fill="#000"><path d="M23.7 31.3H23l-.7-.9h-.9v.9h-.6v-2.6H23c.5 0 .6.2.6.6v.4c0 .4-.2.6-.6.6l.7 1zm-2.4-2.1v.8h1.3c.2 0 .3-.1.3-.3v-.2c0-.2-.1-.3-.3-.3h-1.3zM26.4 31.3l-.2-.5h-1.5l-.2.5h-.7l1.4-2.6h.7l1.4 2.6h-.9zm-1.5-1H26l-.5-1.1-.6 1.1zM28 30.8h1.8v.6h-2.5v-2.6h.7v2z"/></g></svg>