<?xml version="1.0" encoding="utf-8"?>
<!-- Generator: Adobe Illustrator 22.0.1, SVG Export Plug-In . SVG Version: 6.00 Build 0)  -->
<svg version="1.1" id="Layer_1" xmlns="http://www.w3.org/2000/svg" xmlns:xlink="http://www.w3.org/1999/xlink" x="0px" y="0px"
	 viewBox="0 0 50 50" style="enable-background:new 0 0 50 50;" xml:space="preserve">
<style type="text/css">
	.st0{fill:#FFFFFF;}
	.st1{fill:none;stroke:#1D1D1D;stroke-width:1.2;stroke-linecap:round;stroke-miterlimit:10;}
	.st2{fill:none;stroke:#1D1D1D;stroke-width:1.2;stroke-linecap:round;stroke-linejoin:round;stroke-miterlimit:10;}
</style>
<path class="st0" d="M47,50H3c-1.7,0-3-1.3-3-3V3c0-1.7,1.3-3,3-3h44c1.7,0,3,1.3,3,3v44C50,48.7,48.7,50,47,50z"/>
<g>
	<path class="st1" d="M45,47H5c-1.1,0-2-0.9-2-2V5c0-1.1,0.9-2,2-2h40c1.1,0,2,0.9,2,2v40C47,46.1,46.1,47,45,47z"/>
	<g>
		<rect x="32" y="13.7" transform="matrix(0.7071 -0.7071 0.7071 0.7071 -1.1789 28.7638)" class="st2" width="4.3" height="4.3"/>
		<polygon class="st2" points="32.7,21 29,17.3 31.2,15.8 34.2,18.8 		"/>
		
			<rect x="19.1" y="21.4" transform="matrix(0.7071 -0.7071 0.7071 0.7071 -9.3555 25.4056)" class="st2" width="13.8" height="5.2"/>
		<line class="st2" x1="18.7" y1="28.8" x2="19.9" y2="27.6"/>
		<line class="st2" x1="21.1" y1="31.3" x2="22.3" y2="30.1"/>
		<line class="st2" x1="22.4" y1="32.5" x2="17.5" y2="27.6"/>
		<path class="st2" d="M34.9,13.2c2.2-2.2,5.6-3.7,5.6-3.7s-1.4,3.4-3.7,5.6"/>
	</g>
	<line class="st2" x1="16.3" y1="29.8" x2="10.5" y2="35.6"/>
	<line class="st2" x1="18.2" y1="31.8" x2="9.1" y2="40.9"/>
	<line class="st2" x1="20.3" y1="33.9" x2="16.7" y2="37.5"/>
</g>
</svg>
