<?xml version="1.0" encoding="utf-8"?>
<!-- Generator: Adobe Illustrator 22.0.1, SVG Export Plug-In . SVG Version: 6.00 Build 0)  -->
<svg version="1.1" id="Layer_1" xmlns="http://www.w3.org/2000/svg" xmlns:xlink="http://www.w3.org/1999/xlink" x="0px" y="0px"
	 viewBox="0 0 50 50" style="enable-background:new 0 0 50 50;" xml:space="preserve">
<style type="text/css">
	.st0{fill:#FFFFFF;}
	.st1{fill:none;stroke:#1D1D1D;stroke-width:1.0006;stroke-linecap:round;stroke-miterlimit:10;}
	.st2{fill:none;stroke:#1D1D1D;stroke-width:1.001;stroke-linecap:round;stroke-linejoin:round;stroke-miterlimit:10;}
	.st3{fill:none;stroke:#1D1D1D;stroke-miterlimit:10;}
	.st4{fill:#1D1D1D;}
</style>
<path class="st0" d="M47,50H3c-1.7,0-3-1.3-3-3V3c0-1.7,1.3-3,3-3h44c1.7,0,3,1.3,3,3v44C50,48.7,48.7,50,47,50z"/>
<g>
	<path class="st1" d="M45,47H5c-1.1,0-2-0.9-2-2V5c0-1.1,0.9-2,2-2h40c1.1,0,2,0.9,2,2v40C47,46.1,46.1,47,45,47z"/>
	<path class="st2" d="M11.6,34.9V12.4c0-0.5,0.4-0.9,0.9-0.9h5.4c0.5,0,0.9,0.4,0.9,0.9v8.9"/>
	<ellipse class="st3" cx="15.2" cy="34.9" rx="1.3" ry="1.4"/>
	<path class="st2" d="M13.3,38L13.3,38c-1.7-1-2.3-3.2-1.3-4.9l11.2-19.5c0.2-0.4,0.8-0.6,1.2-0.3l4.7,2.7c0.4,0.2,0.6,0.8,0.3,1.2
		L24.9,25"/>
	<path class="st2" d="M15.2,31.3h22.4c0.5,0,0.9,0.4,0.9,0.9v5.4c0,0.5-0.4,0.9-0.9,0.9H15.2c-2,0-3.6-1.6-3.6-3.6l0,0
		C11.6,32.9,13.2,31.3,15.2,31.3z"/>
	<path class="st2" d="M13.2,31.4L33,20.8c0.4-0.2,1-0.1,1.2,0.4l2.6,4.8c0.2,0.4,0.1,1-0.4,1.2l-7.8,4.2"/>
	<g>
		<path class="st4" d="M25.6,36.5h-0.9l-0.8-1.1h-1.1v1.1H22v-3.2h2.7c0.6,0,0.8,0.2,0.8,0.8v0.4c0,0.5-0.2,0.8-0.7,0.8L25.6,36.5z
			 M22.7,33.9v0.9h1.6c0.2,0,0.3-0.1,0.3-0.3v-0.3c0-0.2-0.1-0.3-0.3-0.3C24.3,33.9,22.7,33.9,22.7,33.9z"/>
		<path class="st4" d="M28.9,36.5l-0.3-0.6h-1.9l-0.3,0.6h-0.9l1.7-3.2h0.9l1.7,3.2H28.9z M27,35.3h1.3L27.7,34L27,35.3z"/>
		<path class="st4" d="M30.9,35.8h2.2v0.7h-3v-3.2h0.8C30.9,33.3,30.9,35.8,30.9,35.8z"/>
	</g>
</g>
</svg>
