<?xml version="1.0" encoding="utf-8"?>
<!-- Generator: Adobe Illustrator 22.0.1, SVG Export Plug-In . SVG Version: 6.00 Build 0)  -->
<svg version="1.1" id="Layer_1" xmlns="http://www.w3.org/2000/svg" xmlns:xlink="http://www.w3.org/1999/xlink" x="0px" y="0px"
	 viewBox="0 0 50 50" style="enable-background:new 0 0 50 50;" xml:space="preserve">
<style type="text/css">
	.st0{fill:#FFFFFF;}
	.st1{fill:none;stroke:#1D1D1D;stroke-width:1.0006;stroke-linecap:round;stroke-miterlimit:10;}
	.st2{fill:none;stroke:#1D1D1D;stroke-width:1.001;stroke-linecap:round;stroke-linejoin:round;stroke-miterlimit:10;}
</style>
<path class="st0" d="M47,50H3c-1.7,0-3-1.3-3-3V3c0-1.7,1.3-3,3-3h44c1.7,0,3,1.3,3,3v44C50,48.7,48.7,50,47,50z"/>
<g>
	<path class="st1" d="M45,47H5c-1.1,0-2-0.9-2-2V5c0-1.1,0.9-2,2-2h40c1.1,0,2,0.9,2,2v40C47,46.1,46.1,47,45,47z"/>
	<path class="st2" d="M27.5,16.2c0,3.4-2.6,6.2-2.6,6.2s-2.6-2.8-2.6-6.2S25,10,25,10S27.5,12.8,27.5,16.2z"/>
	<path class="st2" d="M27.5,33.8c0,3.4-2.6,6.2-2.6,6.2s-2.6-2.8-2.6-6.2s2.6-6.2,2.6-6.2S27.5,30.4,27.5,33.8z"/>
	<path class="st2" d="M33.8,27.5c-3.4,0-6.2-2.6-6.2-2.6s2.8-2.6,6.2-2.6S40,25,40,25S37.2,27.5,33.8,27.5z"/>
	<path class="st2" d="M32.9,20.6c-2.4,2.4-6.2,2.6-6.2,2.6s0.2-3.8,2.6-6.2s6.2-2.6,6.2-2.6S35.4,18.2,32.9,20.6z"/>
	<path class="st2" d="M20.6,33c-2.4,2.4-6.2,2.6-6.2,2.6s0.2-3.8,2.6-6.2s6.2-2.6,6.2-2.6S23.1,30.6,20.6,33z"/>
	<path class="st2" d="M16.9,20.6c-2.4-2.4-2.6-6.2-2.6-6.2s3.8,0.2,6.2,2.6s2.6,6.2,2.6,6.2S19.4,23,16.9,20.6z"/>
	<path class="st2" d="M29.4,32.9c-2.4-2.4-2.6-6.2-2.6-6.2s3.8,0.2,6.2,2.6s2.6,6.2,2.6,6.2S31.8,35.3,29.4,32.9z"/>
	<path class="st2" d="M16.2,27.5C12.8,27.5,10,25,10,25s2.8-2.6,6.2-2.6s6.2,2.6,6.2,2.6S19.6,27.5,16.2,27.5z"/>
	<circle class="st2" cx="25" cy="25" r="2.6"/>
</g>
</svg>
