<?xml version="1.0" encoding="utf-8"?>
<!-- Generator: Adobe Illustrator 22.0.1, SVG Export Plug-In . SVG Version: 6.00 Build 0)  -->
<svg version="1.1" id="Layer_1" xmlns="http://www.w3.org/2000/svg" xmlns:xlink="http://www.w3.org/1999/xlink" x="0px" y="0px"
	 viewBox="0 0 50 50" style="enable-background:new 0 0 50 50;" xml:space="preserve">
<style type="text/css">
	.st0{fill:#FFFFFF;}
	.st1{fill:none;stroke:#1D1D1D;stroke-width:1.2;stroke-linecap:round;stroke-miterlimit:10;}
	.st2{fill:none;stroke:#1D1D1D;stroke-width:1.2;stroke-linecap:round;stroke-linejoin:round;stroke-miterlimit:10;}
</style>
<path class="st0" d="M47,50H3c-1.7,0-3-1.3-3-3V3c0-1.7,1.3-3,3-3h44c1.7,0,3,1.3,3,3v44C50,48.7,48.7,50,47,50z"/>
<g>
	<path class="st1" d="M45,47H5c-1.1,0-2-0.9-2-2V5c0-1.1,0.9-2,2-2h40c1.1,0,2,0.9,2,2v40C47,46.1,46.1,47,45,47z"/>
	<path class="st2" d="M23.9,39.4c0,0-12.9-2-10-13.3c1.1-4.4,3-5.9,5.9-9.8c3-4.2,3.1-6.3,3.1-6.3s4.5,5.1,2,10.5
		c-1.1,2.5-1.5,6.6-1.5,6.6s1-3.8,2.8-4.8C28.3,21.1,28,19,28,19s2.4,0.4,1.1,6.1c-1,4.2,4.6,4,4.1-0.5c-0.7-6-4.7-8.8-4.7-8.8
		s8.8,2.5,7.9,10.9C36,31.1,32,34,29.2,36.3c-1.8,1.4-2.4,3.7-2.4,3.7s-1.4-3.8,0.5-5.2c3.7-2.6,3.6-4.3,3.6-4.3s-3.4,2.9-4.5,1.4
		c-1.7-2.4-0.1-5.5-0.1-5.5s-4,3-3.1,5.2s1.2,2.7,1.2,2.7s-3.4-0.4-4.5-3.8s-0.2-8.8-0.2-8.8s-4.5,8-2,11.8
		C20.4,37.4,23.9,39.4,23.9,39.4z"/>
</g>
</svg>
