<?xml version="1.0" encoding="utf-8"?>
<!-- Generator: Adobe Illustrator 22.0.1, SVG Export Plug-In . SVG Version: 6.00 Build 0)  -->
<svg version="1.1" id="Layer_1" xmlns="http://www.w3.org/2000/svg" xmlns:xlink="http://www.w3.org/1999/xlink" x="0px" y="0px"
	 viewBox="0 0 50 50" style="enable-background:new 0 0 50 50;" xml:space="preserve">
<style type="text/css">
	.st0{fill:#FFFFFF;}
	.st1{fill:none;stroke:#1D1D1D;stroke-width:1.2;stroke-linecap:round;stroke-miterlimit:10;}
</style>
<path class="st0" d="M47,50H3c-1.7,0-3-1.3-3-3V3c0-1.7,1.3-3,3-3h44c1.7,0,3,1.3,3,3v44C50,48.7,48.7,50,47,50z"/>
<g>
	<path class="st1" d="M45,47H5c-1.1,0-2-0.9-2-2V5c0-1.1,0.9-2,2-2h40c1.1,0,2,0.9,2,2v40C47,46.1,46.1,47,45,47z"/>
	<path class="st1" d="M16,25c0-5.5,4.5-10,10-10c0,0,0,4.5,0,10s0,10,0,10C20.5,35,16,30.5,16,25z"/>
	<line class="st1" x1="13" y1="38" x2="16.3" y2="34.7"/>
	<line class="st1" x1="13" y1="12.9" x2="16.2" y2="16.1"/>
	<line class="st1" x1="9" y1="25" x2="13" y2="25"/>
	<line class="st1" x1="29" y1="9" x2="31" y2="9"/>
	<line class="st1" x1="29" y1="13" x2="35" y2="13"/>
	<line class="st1" x1="26" y1="41" x2="26" y2="9"/>
	<line class="st1" x1="29" y1="17" x2="37" y2="17"/>
	<line class="st1" x1="29" y1="21" x2="39" y2="21"/>
	<line class="st1" x1="29" y1="25" x2="41" y2="25"/>
	<line class="st1" x1="29" y1="29" x2="39" y2="29"/>
	<line class="st1" x1="29" y1="33" x2="37" y2="33"/>
	<line class="st1" x1="29" y1="37" x2="35" y2="37"/>
	<line class="st1" x1="29" y1="41" x2="31" y2="41"/>
</g>
</svg>
