<?xml version="1.0" encoding="utf-8"?>
<!-- Generator: Adobe Illustrator 22.0.1, SVG Export Plug-In . SVG Version: 6.00 Build 0)  -->
<svg version="1.1" id="Layer_1" xmlns="http://www.w3.org/2000/svg" xmlns:xlink="http://www.w3.org/1999/xlink" x="0px" y="0px"
	 viewBox="0 0 50 50" style="enable-background:new 0 0 50 50;" xml:space="preserve">
<style type="text/css">
	.st0{fill:#FFFFFF;}
	.st1{fill:none;stroke:#1D1D1D;stroke-width:1.2;stroke-linecap:round;stroke-miterlimit:10;}
</style>
<path class="st0" d="M47,50H3c-1.7,0-3-1.3-3-3V3c0-1.7,1.3-3,3-3h44c1.7,0,3,1.3,3,3v44C50,48.7,48.7,50,47,50z"/>
<g>
	<path class="st1" d="M45,47H5c-1.1,0-2-0.9-2-2V5c0-1.1,0.9-2,2-2h40c1.1,0,2,0.9,2,2v40C47,46.1,46.1,47,45,47z"/>
	<ellipse class="st1" cx="24" cy="13.5" rx="11.7" ry="3"/>
	<path class="st1" d="M16.5,13.9c0-0.6,3.4-1,7.5-1s7.5,0.4,7.5,1"/>
	<path class="st1" d="M34.7,16.5c0.1,1.4-4.7,2.8-10.7,3.1s-10.9-0.7-10.9-2.1"/>
	<path class="st1" d="M34,20c0.1,1.4-4.3,2.8-9.8,3s-10-0.7-10-2.2"/>
	<path class="st1" d="M32.9,23.8c0.1,0.9-2.6,2.1-6.2,2.7s-6.5,0.2-6.7-0.7"/>
	<path class="st1" d="M32.4,26.9c0.2,0.7-1.7,1.8-4.3,2.4c-2.5,0.6-4.8,0.6-4.9-0.1"/>
	<path class="st1" d="M32.3,31.2c0,0.5-1.5,1.1-3.4,1.2c-1.9,0.2-3.5-0.1-3.5-0.7"/>
	<path class="st1" d="M31,34.3c0,0.4-1.1,0.8-2.6,0.9c-1.4,0-2.6-0.3-2.6-0.8"/>
	<path class="st1" d="M29.2,36.9c0,0.2-0.8,0.4-1.7,0.4s-1.7-0.2-1.7-0.4"/>
	<path class="st1" d="M27.8,39c0,0.2-0.5,0.5-1.3,0.5c-0.7,0.1-1.3-0.1-1.3-0.3"/>
</g>
</svg>
