<?xml version="1.0" encoding="utf-8"?>
<!-- Generator: Adobe Illustrator 21.1.0, SVG Export Plug-In . SVG Version: 6.00 Build 0)  -->
<svg version="1.1" id="Layer_1" xmlns="http://www.w3.org/2000/svg" xmlns:xlink="http://www.w3.org/1999/xlink" x="0px" y="0px"
	 viewBox="0 0 1258 115.6" style="enable-background:new 0 0 1258 115.6;" xml:space="preserve">
<style type="text/css">
	.st0{fill:#1E3E7C;}
	.st1{fill-rule:evenodd;clip-rule:evenodd;fill:#1D1D1B;}
</style>
<g>
	<path class="st0" d="M61.4,58.5L95.2,0H16.3C7.2,0-0.2,7.4-0.2,16.5V23L61.4,58.5z"/>
	<polygon class="st0" points="82.4,82.1 -0.2,34.5 -0.2,43.2 87.9,94 140.1,3.5 140.1,0 129.8,0 	"/>
</g>
<path class="st0" d="M-0.2,54.7v44.4c0,9.1,7.4,16.5,16.5,16.5h89.1L-0.2,54.7z"/>
<path class="st0" d="M110.1,115.6h13.5c9.1,0,16.5-7.4,16.5-16.5V63.6L110.1,115.6z"/>
<g>
	<g>
		<path class="st1" d="M241.3,67.3h39.3v12.4c0,9.8-3.5,13.4-13.5,13.4h-53.3c-10.1,0-13.5-3.6-13.5-13.4V37.9
			c0-9.8,3.5-13.4,13.5-13.4h52.3c-4.2,0,40.4,0.2,40.4,0.2V1.3l-29.7,0H203c-21.8,0-32,10-32,31.7v50.9c0,21.7,10.2,31.7,32,31.7
			h73.8c21.8,0,32-10,32-31.7V46h-67.5V67.3z M350.7,1.3h-29.5v114.3h106.1V92.1h-76.6V1.3z M489.1,1.3l-61.8,114.3H459l12.4-23.4
			h64.8l14,23.4h33.2L521.6,1.3H489.1z M483.2,68.7l21.4-44.2l22.8,44.2H483.2z M689.4,45.2l-67.5,0.3c0,0-9.5,0.5-9.5-8.3v-1.5
			c0-6.8,3.2-10.6,9.9-10.6h55.6c6.3,0,32.2,0,32.2,0l0.1-23.9H608c-16.9,0-24.6,7.7-24.6,25v19c0.9,14.1,7.6,22.3,23.5,23.5h67.8
			c7.4,0,10,1.3,10,8v5.1c0,6.7-3.2,10.4-10,10.4h-58.9c-6.3,0-32.4,0-32.4,0l0.1,23.4h105.7c17,0,24.8-7.5,24.8-24.5V72.5
			C713.9,55.7,706.8,46.4,689.4,45.2z M833.8,45.2l-67.5,0.3c0,0-9.5,0.5-9.5-8.3v-1.5c0-6.8,3.2-10.6,9.9-10.6h55.6
			c6.3,0,32.2,0,32.2,0l0.1-23.9H752.3c-16.9,0-24.6,7.7-24.6,25v19c0.9,14.1,7.6,22.3,23.5,23.5h67.8c7.4,0,10,1.3,10,8v5.1
			c0,6.7-3.2,10.4-10,10.4h-58.9c-6.3,0-32.4,0-32.4,0l0.1,23.4h105.7c17,0,24.8-7.5,24.8-24.5V72.5
			C858.3,55.7,851.1,46.4,833.8,45.2z M992,56.2c7.4-2.9,11.1-9.8,11.1-20.6v-9.8c0-13.4-7.8-24.5-24.8-24.5H875.1v114.3h106.5
			c17,0,24.8-7.5,24.8-24.5V77.9C1006.4,65.6,1001.6,58.4,992,56.2z M964.6,22.8c6.8,0,10.9,3.2,10.6,7.7v5.9c0,7-4.7,8.8-11.8,8.8
			h-58.9l-0.1-22.4H964.6z M967.9,94h-63.6l0.1-25.3h61.9c7.1,0,11.8,2.1,11.8,8.8v8.8C978.4,91.7,974.7,94,967.9,94z M1048.8,68.7
			h82.5V45.2h-82.5l0-20.8h88.5V1.3h-117.7v114.3l120.5,0V92.1l-91.3,0.3L1048.8,68.7z M1181.4,92.1V1.3h-29.5v114.3H1258V92.1
			H1181.4z"/>
	</g>
</g>
</svg>
