<?xml version="1.0" encoding="utf-8"?>
<!-- Generator: Adobe Illustrator 22.0.1, SVG Export Plug-In . SVG Version: 6.00 Build 0)  -->
<svg version="1.1" id="Layer_1" xmlns="http://www.w3.org/2000/svg" xmlns:xlink="http://www.w3.org/1999/xlink" x="0px" y="0px"
	 viewBox="0 0 50 50" style="enable-background:new 0 0 50 50;" xml:space="preserve">
<style type="text/css">
	.st0{fill:#FFFFFF;}
	.st1{fill:none;stroke:#1D1D1D;stroke-width:1.2;stroke-linecap:round;stroke-miterlimit:10;}
</style>
<path class="st0" d="M47,50H3c-1.7,0-3-1.3-3-3V3c0-1.7,1.3-3,3-3h44c1.7,0,3,1.3,3,3v44C50,48.7,48.7,50,47,50z"/>
<g>
	<path class="st1" d="M45,47H5c-1.1,0-2-0.9-2-2V5c0-1.1,0.9-2,2-2h40c1.1,0,2,0.9,2,2v40C47,46.1,46.1,47,45,47z"/>
	<line class="st1" x1="9.5" y1="21.4" x2="27.6" y2="39.5"/>
	<line class="st1" x1="12.7" y1="18.2" x2="30.8" y2="36.3"/>
	<line class="st1" x1="15.9" y1="15" x2="34" y2="33"/>
	<line class="st1" x1="19.2" y1="11.7" x2="37.3" y2="29.8"/>
	<line class="st1" x1="22.4" y1="8.5" x2="40.5" y2="26.6"/>
	<line class="st1" x1="27.6" y1="8.5" x2="9.5" y2="26.6"/>
	<line class="st1" x1="30.8" y1="11.7" x2="12.7" y2="29.8"/>
	<line class="st1" x1="34" y1="15" x2="15.9" y2="33"/>
	<line class="st1" x1="37.3" y1="18.2" x2="19.2" y2="36.3"/>
	<line class="st1" x1="40.5" y1="21.4" x2="22.4" y2="39.5"/>
</g>
</svg>
