<?xml version="1.0" encoding="utf-8"?>
<!-- Generator: Adobe Illustrator 22.0.1, SVG Export Plug-In . SVG Version: 6.00 Build 0)  -->
<svg version="1.1" id="Layer_1" xmlns="http://www.w3.org/2000/svg" xmlns:xlink="http://www.w3.org/1999/xlink" x="0px" y="0px"
	 viewBox="0 0 50 50" style="enable-background:new 0 0 50 50;" xml:space="preserve">
<style type="text/css">
	.st0{fill:#FFFFFF;}
	.st1{fill:none;stroke:#1D1D1D;stroke-width:1.0006;stroke-linecap:round;stroke-miterlimit:10;}
	.st2{fill:none;stroke:#1D1D1D;stroke-width:1.001;stroke-linecap:round;stroke-linejoin:round;stroke-miterlimit:10;}
</style>
<path class="st0" d="M47,50H3c-1.7,0-3-1.3-3-3V3c0-1.7,1.3-3,3-3h44c1.7,0,3,1.3,3,3v44C50,48.7,48.7,50,47,50z"/>
<g>
	<path class="st1" d="M45,47H5c-1.1,0-2-0.9-2-2V5c0-1.1,0.9-2,2-2h40c1.1,0,2,0.9,2,2v40C47,46.1,46.1,47,45,47z"/>
	<path class="st2" d="M31,22.7l-2.4-5.1c-0.8-1.6-0.8-3.7,0-5.4L31,7.1l2.4,5.1c0.8,1.6,0.8,3.7,0,5.4L31,22.7z"/>
	<path class="st2" d="M37,22.7l-2.4-5.1c-0.8-1.6-0.8-3.7,0-5.4L37,7.1l2.4,5.1c0.8,1.6,0.8,3.7,0,5.4L37,22.7z"/>
	<path class="st2" d="M25,22.7l-2.4-5.1c-0.8-1.6-0.8-3.7,0-5.4L25,7.1l2.4,5.1c0.8,1.6,0.8,3.7,0,5.4L25,22.7z"/>
	<path class="st2" d="M19,22.7l-2.4-5.1c-0.8-1.6-0.8-3.7,0-5.4L19,7.1l2.4,5.1c0.8,1.6,0.8,3.7,0,5.4L19,22.7z"/>
	<path class="st2" d="M13,22.7l-2.4-5.1c-0.8-1.6-0.8-3.7,0-5.4L13,7.1l2.4,5.1c0.8,1.6,0.8,3.7,0,5.4L13,22.7z"/>
	<path class="st2" d="M31,41.1L28.6,36c-0.8-1.6-0.8-3.7,0-5.4l2.4-5.1l2.4,5.1c0.8,1.6,0.8,3.7,0,5.4L31,41.1z"/>
	<path class="st2" d="M37,41.1L34.6,36c-0.8-1.6-0.8-3.7,0-5.4l2.4-5.1l2.4,5.1c0.8,1.6,0.8,3.7,0,5.4L37,41.1z"/>
	<path class="st2" d="M25,41.1L22.6,36c-0.8-1.6-0.8-3.7,0-5.4l2.4-5.1l2.4,5.1c0.8,1.6,0.8,3.7,0,5.4L25,41.1z"/>
	<path class="st2" d="M19,41.1L16.6,36c-0.8-1.6-0.8-3.7,0-5.4l2.4-5.1l2.4,5.1c0.8,1.6,0.8,3.7,0,5.4L19,41.1z"/>
	<path class="st2" d="M13,41.1L10.6,36c-0.8-1.6-0.8-3.7,0-5.4l2.4-5.1l2.4,5.1c0.8,1.6,0.8,3.7,0,5.4L13,41.1z"/>
	<path class="st2" d="M28,32.1L25.6,27c-0.8-1.6-0.8-3.7,0-5.4l2.4-5.1l2.4,5.1c0.8,1.6,0.8,3.7,0,5.4L28,32.1z"/>
	<path class="st2" d="M34,32.1L31.6,27c-0.8-1.6-0.8-3.7,0-5.4l2.4-5.1l2.4,5.1c0.8,1.6,0.8,3.7,0,5.4L34,32.1z"/>
	<path class="st2" d="M22,32.1L19.6,27c-0.8-1.6-0.8-3.7,0-5.4l2.4-5.1l2.4,5.1c0.8,1.6,0.8,3.7,0,5.4L22,32.1z"/>
	<path class="st2" d="M16,32.1L13.6,27c-0.8-1.6-0.8-3.7,0-5.4l2.4-5.1l2.4,5.1c0.8,1.6,0.8,3.7,0,5.4L16,32.1z"/>
</g>
</svg>
