<?xml version="1.0" encoding="utf-8"?>
<!-- Generator: Adobe Illustrator 22.0.1, SVG Export Plug-In . SVG Version: 6.00 Build 0)  -->
<svg version="1.1" id="Layer_1" xmlns="http://www.w3.org/2000/svg" xmlns:xlink="http://www.w3.org/1999/xlink" x="0px" y="0px"
	 viewBox="0 0 50 50" style="enable-background:new 0 0 50 50;" xml:space="preserve">
<style type="text/css">
	.st0{fill:#FFFFFF;}
	.st1{fill:none;stroke:#1D1D1D;stroke-width:1.2;stroke-linecap:round;stroke-miterlimit:10;}
	.st2{fill:none;stroke:#1D1D1D;stroke-width:1.2;stroke-linecap:round;stroke-linejoin:round;stroke-miterlimit:10;}
</style>
<path class="st0" d="M47,50H3c-1.7,0-3-1.3-3-3V3c0-1.7,1.3-3,3-3h44c1.7,0,3,1.3,3,3v44C50,48.7,48.7,50,47,50z"/>
<g>
	<path class="st1" d="M45,47H5c-1.1,0-2-0.9-2-2V5c0-1.1,0.9-2,2-2h40c1.1,0,2,0.9,2,2v40C47,46.1,46.1,47,45,47z"/>
	<g>
		<g>
			<polyline class="st2" points="7.5,25.5 7.5,30.5 33.5,30.5 42.5,24.5 			"/>
			<polygon class="st2" points="16.5,19.5 7.5,25.5 33.5,25.5 42.5,19.5 			"/>
			<line class="st2" x1="33.5" y1="30.5" x2="33.5" y2="25.5"/>
		</g>
		<line class="st2" x1="42.5" y1="24.5" x2="42.5" y2="19.5"/>
	</g>
</g>
</svg>
