<?xml version="1.0" encoding="utf-8"?>
<!-- Generator: Adobe Illustrator 22.0.1, SVG Export Plug-In . SVG Version: 6.00 Build 0)  -->
<svg version="1.1" id="Layer_1" xmlns="http://www.w3.org/2000/svg" xmlns:xlink="http://www.w3.org/1999/xlink" x="0px" y="0px"
	 viewBox="0 0 50 50" style="enable-background:new 0 0 50 50;" xml:space="preserve">
<style type="text/css">
	.st0{fill:#FFFFFF;}
	.st1{fill:none;stroke:#1D1D1D;stroke-width:1.2;stroke-linecap:round;stroke-miterlimit:10;}
	.st2{fill:none;stroke:#1D1D1D;stroke-width:1.2;stroke-linecap:round;stroke-linejoin:round;stroke-miterlimit:10;}
</style>
<path class="st0" d="M47,50H3c-1.7,0-3-1.3-3-3V3c0-1.7,1.3-3,3-3h44c1.7,0,3,1.3,3,3v44C50,48.7,48.7,50,47,50z"/>
<g>
	<path class="st1" d="M45,47H5c-1.1,0-2-0.9-2-2V5c0-1.1,0.9-2,2-2h40c1.1,0,2,0.9,2,2v40C47,46.1,46.1,47,45,47z"/>
	<path class="st2" d="M25,22.1L9.6,37.5c-0.5,0.5-0.5,1.4,0,2l1,1c0.5,0.5,1.4,0.5,2,0L28,25.1l2.2-2.2c0,0,0.8,0.8,1.2,1.2
		c0.3,0.3,3.4-1.5,4.3-0.7c4.5,4.5,3.7,6.6,3.7,6.6s0.9-0.9,1.3-2.5c0.7-3.3-2.5-7.6-2.5-7.6l-6.6-6.6l-2.5,1.5l-1.3-1.3l0.9-1.8
		c0,0,0.3-0.7,0.1-0.9l-1.7-1.7c-0.2-0.2-0.6-0.2-0.9,0.1l-4.6,4.6c-0.3,0.3-0.3,0.7-0.1,0.9l1.7,1.7c0.2,0.2,0.9-0.1,0.9-0.1
		l1.7-0.8l1.3,1.3l-1.1,2l2.4,2.4"/>
</g>
</svg>
