<?xml version="1.0" encoding="utf-8"?>
<!-- Generator: Adobe Illustrator 22.0.1, SVG Export Plug-In . SVG Version: 6.00 Build 0)  -->
<svg version="1.1" id="Layer_1" xmlns="http://www.w3.org/2000/svg" xmlns:xlink="http://www.w3.org/1999/xlink" x="0px" y="0px"
	 viewBox="0 0 50 50" style="enable-background:new 0 0 50 50;" xml:space="preserve">
<style type="text/css">
	.st0{fill:#FFFFFF;}
	.st1{fill:none;stroke:#1D1D1D;stroke-width:1.2;stroke-linecap:round;stroke-miterlimit:10;}
</style>
<path class="st0" d="M47,50H3c-1.7,0-3-1.3-3-3V3c0-1.7,1.3-3,3-3h44c1.7,0,3,1.3,3,3v44C50,48.7,48.7,50,47,50z"/>
<g>
	<path class="st1" d="M45,47H5c-1.1,0-2-0.9-2-2V5c0-1.1,0.9-2,2-2h40c1.1,0,2,0.9,2,2v40C47,46.1,46.1,47,45,47z"/>
	<ellipse class="st1" cx="25" cy="20.5" rx="9" ry="2.5"/>
	<path class="st1" d="M16,20.5v16.2c0,0.2,0,0.8,0,0.9c0,0.8,2.9,2.4,9,2.4s9-1.6,9-2.4c0-0.1,0-0.6,0-0.9V20.4"/>
	<path class="st1" d="M14,23v-2c0-6,4.9-11,11-11l0,0c6,0,11,4.9,11,11v2"/>
	<line class="st1" x1="14" y1="21.5" x2="16" y2="21.5"/>
	<path class="st1" d="M17.5,21.5c0-0.8,2.4-1.5,7.5-1.5s7.5,0.7,7.5,1.5"/>
	<path class="st1" d="M16.2,21.5c0,0,1.3,3.8,3.2,4s1.6-0.9,3.1-0.9c1.4,0,2.4,3.2,2.9,4.1c0.6,0.9,1.1-2.1,1.9-2.1
		c0.8-0.1,1.8,0.7,2.1,1.9s-1.1,3.1-1,4c0.1,0.9,0.9,1.6,2,1.5c1.9-0.1,1.2-2.1,1.1-2.6c-0.2-1.1-0.2-1.5-0.1-2.2
		c0.4-1.5,1.5-6.6,2.5-7.7h2"/>
</g>
</svg>
