<?xml version="1.0" encoding="utf-8"?>
<!-- Generator: Adobe Illustrator 22.0.1, SVG Export Plug-In . SVG Version: 6.00 Build 0)  -->
<svg version="1.1" id="Layer_1" xmlns="http://www.w3.org/2000/svg" xmlns:xlink="http://www.w3.org/1999/xlink" x="0px" y="0px"
	 viewBox="0 0 50 50" style="enable-background:new 0 0 50 50;" xml:space="preserve">
<style type="text/css">
	.st0{fill:#FFFFFF;}
	.st1{fill:none;stroke:#1D1D1D;stroke-width:1.2;stroke-linecap:round;stroke-miterlimit:10;}
	.st2{fill:none;stroke:#1D1D1D;stroke-width:1.2;stroke-linecap:round;stroke-linejoin:round;stroke-miterlimit:10;}
</style>
<path class="st0" d="M47,50H3c-1.7,0-3-1.3-3-3V3c0-1.7,1.3-3,3-3h44c1.7,0,3,1.3,3,3v44C50,48.7,48.7,50,47,50z"/>
<g>
	<path class="st1" d="M45,47H5c-1.1,0-2-0.9-2-2V5c0-1.1,0.9-2,2-2h40c1.1,0,2,0.9,2,2v40C47,46.1,46.1,47,45,47z"/>
	<path class="st1" d="M25,25"/>
	<path class="st1" d="M25,25"/>
	<g>
		<path class="st1" d="M21.9,38.1h-2c-2.2,0-4-1.8-4-4l0,0c0-2.2,1.8-4,4-4h2c2.2,0,4,1.8,4,4l0,0C25.9,36.3,24.1,38.1,21.9,38.1z"
			/>
		<line class="st1" x1="25.9" y1="34.1" x2="25.9" y2="11.9"/>
		<path class="st2" d="M25.9,12.5c0,0,0.5,1.5,1.3,2.2c1.5,1.4,3.8,0.9,5.8,4.1c1.7,2.6,1.8,6.8-2.3,9.3c0,0,4.7-5.3-2.4-7.6
			c-2.2-0.9-2.5-3.6-2.5-3.6"/>
	</g>
</g>
</svg>
