<?xml version="1.0" encoding="utf-8"?>
<!-- Generator: Adobe Illustrator 22.0.1, SVG Export Plug-In . SVG Version: 6.00 Build 0)  -->
<svg version="1.1" id="Layer_1" xmlns="http://www.w3.org/2000/svg" xmlns:xlink="http://www.w3.org/1999/xlink" x="0px" y="0px"
	 viewBox="0 0 50 50" style="enable-background:new 0 0 50 50;" xml:space="preserve">
<style type="text/css">
	.st0{fill:#FFFFFF;}
	.st1{fill:none;stroke:#1D1D1D;stroke-width:1.2;stroke-miterlimit:10;}
	.st2{fill:none;stroke:#1D1D1D;stroke-width:1.2;stroke-linecap:round;stroke-linejoin:round;stroke-miterlimit:10;}
	.st3{fill:none;stroke:#1D1D1D;stroke-width:1.2;stroke-linecap:round;stroke-miterlimit:10;}
</style>
<path class="st0" d="M47,50H3c-1.7,0-3-1.3-3-3V3c0-1.7,1.3-3,3-3h44c1.7,0,3,1.3,3,3v44C50,48.7,48.7,50,47,50z"/>
<g>
	<ellipse class="st1" cx="25" cy="27.8" rx="4.4" ry="6"/>
	<ellipse class="st1" cx="25" cy="18.1" rx="3.1" ry="3.2"/>
	<path class="st2" d="M30.1,10c0,0,3.3,3.2,1.6,7.6c0,0-2.2,0.4-3.4,0.4"/>
	<path class="st2" d="M28,19.5h6.6c0,0,2.3-5.2-0.5-8"/>
	<path class="st3" d="M27.9,19.9c0,0,7.3,4.1,7.6,4.6c0.4,0.7,2.4,6.1-0.6,10.5"/>
	<path class="st3" d="M29.4,25.2c0,0,2.7,1,2.9,1.3c0.2,0.4,1.1,9.2-2.4,12.5"/>
	<g>
		<path class="st2" d="M23.7,15.1c-0.5-0.2-1-0.9-1-1.5c0-0.8,0.7-1.5,1.5-1.5"/>
		<path class="st2" d="M26.5,15.1c0.5-0.2,1-0.9,1-1.5c0-0.8-0.7-1.5-1.5-1.5"/>
	</g>
	<path class="st2" d="M19.9,10.1c0,0-3.3,3.2-1.6,7.6c0,0,2.2,0.4,3.4,0.4"/>
	<path class="st2" d="M22.1,19.5h-6.6c0,0-2.3-5.2,0.5-8"/>
	<path class="st3" d="M22.1,19.9c0,0-7.3,4.1-7.6,4.6c-0.4,0.7-2.4,6.1,0.6,10.5"/>
	<path class="st3" d="M20.6,25.2c0,0-2.7,1-2.9,1.3c-0.2,0.4-1.1,9.2,2.4,12.5"/>
	<path class="st3" d="M45,47H5c-1.1,0-2-0.9-2-2V5c0-1.1,0.9-2,2-2h40c1.1,0,2,0.9,2,2v40C47,46.1,46.1,47,45,47z"/>
</g>
</svg>
