<svg xmlns="http://www.w3.org/2000/svg" viewBox="0 0 45 45" width='45' height='45'><path fill="none" stroke="#000" stroke-linecap="round" stroke-miterlimit="10" stroke-width="1.0006" d="M42.5 44.5h-40c-1.1 0-2-.9-2-2v-40c0-1.1.9-2 2-2h40c1.1 0 2 .9 2 2v40c0 1.1-.9 2-2 2z"/><path fill="none" stroke="#000" stroke-linecap="round" stroke-miterlimit="10" stroke-width="1.0006" d="M9.1 32.4V9.9c0-.5.4-.9.9-.9h5.4c.5 0 .9.4.9.9v8.9"/><ellipse cx="12.7" cy="32.4" fill="none" stroke="#000" stroke-linecap="round" stroke-miterlimit="10" stroke-width="1.0006" rx="1.3" ry="1.4"/><path fill="none" stroke="#000" stroke-linecap="round" stroke-miterlimit="10" stroke-width="1.0006" d="M10.8 35.5c-1.7-1-2.3-3.2-1.3-4.9l11.2-19.5c.2-.4.8-.6 1.2-.3l4.7 2.7c.4.2.6.8.3 1.2l-4.5 7.8"/><path fill="none" stroke="#000" stroke-linecap="round" stroke-miterlimit="10" stroke-width="1.0006" d="M12.7 28.8h22.4c.5 0 .9.4.9.9v5.4c0 .5-.4.9-.9.9H12.7c-2 0-3.6-1.6-3.6-3.6s1.6-3.6 3.6-3.6z"/><path fill="none" stroke="#000" stroke-linecap="round" stroke-miterlimit="10" stroke-width="1.0006" d="M10.7 28.9l19.7-10.7c.4-.2 1-.1 1.2.4l2.6 4.8c.2.4.1 1-.4 1.2L26 28.8"/><g fill="#000"><path d="M23.1 34h-.9l-.8-1.1h-1.1V34h-.8v-3.2h2.7c.6 0 .8.2.8.8v.4c0 .5-.2.8-.7.8l.8 1.2zm-2.9-2.6v.9h1.6c.2 0 .3-.1.3-.3v-.3c0-.2-.1-.3-.3-.3h-1.6zM26.4 34l-.3-.6h-1.9l-.2.6h-.9l1.7-3.2h.9l1.7 3.2h-1zm-1.9-1.2h1.3l-.7-1.3-.6 1.3zM28.4 33.3h2.2v.7h-3v-3.2h.8v2.5z"/></g></svg>