<?xml version="1.0" encoding="utf-8"?>
<!-- Generator: Adobe Illustrator 22.0.1, SVG Export Plug-In . SVG Version: 6.00 Build 0)  -->
<svg version="1.1" id="Layer_1" xmlns="http://www.w3.org/2000/svg" xmlns:xlink="http://www.w3.org/1999/xlink" x="0px" y="0px"
	 viewBox="0 0 50 50" style="enable-background:new 0 0 50 50;" xml:space="preserve">
<style type="text/css">
	.st0{fill:#FFFFFF;}
	.st1{fill:none;stroke:#1D1D1D;stroke-width:1.0006;stroke-linecap:round;stroke-miterlimit:10;}
	.st2{fill:none;stroke:#1D1D1D;stroke-width:1.2;stroke-linecap:round;stroke-miterlimit:10;}
	.st3{fill:none;stroke:#1D1D1D;stroke-width:1.001;stroke-linecap:round;stroke-linejoin:round;stroke-miterlimit:10;}
	.st4{fill:none;stroke:#1D1D1D;stroke-width:1.2;stroke-linecap:round;stroke-linejoin:round;stroke-miterlimit:10;}
	.st5{fill:none;stroke:#1D1D1D;stroke-width:0.3;stroke-linecap:round;stroke-linejoin:round;stroke-miterlimit:10;}
</style>
<path class="st0" d="M47,50H3c-1.7,0-3-1.3-3-3V3c0-1.7,1.3-3,3-3h44c1.7,0,3,1.3,3,3v44C50,48.7,48.7,50,47,50z"/>
<g>
	<path class="st1" d="M10.6,2.8"/>
	<path class="st1" d="M39.4,2.8"/>
	<path class="st2" d="M45,47.2H5c-1.1,0-2-0.9-2-2v-40c0-1.1,0.9-2,2-2h40c1.1,0,2,0.9,2,2v40C47,46.3,46.1,47.2,45,47.2z"/>
	<path class="st1" d="M39.4,31.6"/>
	<path class="st1" d="M25,17.2"/>
	<path class="st3" d="M26,20.8"/>
	<polygon class="st4" points="25,21.9 19,21.9 19,27.9 17,27.9 17,19.9 25,19.9 	"/>
	<polygon class="st4" points="14.9,38.2 14.9,18.7 30.5,8.8 28.5,7.8 12.9,17.7 12.9,38.2 	"/>
	<polyline class="st4" points="17,19.9 32.6,9.9 38.1,11.2 25,19.9 	"/>
	<polyline class="st4" points="19,27.9 36.4,17.2 36.4,14.7 	"/>
	<polyline class="st4" points="38.1,11.2 38.1,13.2 25,21.9 	"/>
	<line class="st5" x1="16.7" y1="28.1" x2="15" y2="27.4"/>
	<line class="st5" x1="17" y1="27.5" x2="14.8" y2="26.5"/>
	<line class="st5" x1="17" y1="25.9" x2="14.8" y2="24.9"/>
	<line class="st5" x1="17.1" y1="25.1" x2="14.9" y2="24.1"/>
	<line class="st5" x1="16.9" y1="23.6" x2="14.7" y2="22.6"/>
	<line class="st5" x1="17" y1="22" x2="14.8" y2="21"/>
	<line class="st5" x1="17" y1="21.3" x2="14.8" y2="20.3"/>
	<line class="st5" x1="17" y1="20.5" x2="14.8" y2="19.5"/>
	<line class="st5" x1="17" y1="19.7" x2="14.8" y2="18.7"/>
	<line class="st5" x1="17.7" y1="19.2" x2="15.5" y2="18.2"/>
	<line class="st5" x1="18.2" y1="18.8" x2="16" y2="17.8"/>
	<line class="st5" x1="19.1" y1="18.3" x2="16.9" y2="17.3"/>
	<line class="st5" x1="19.9" y1="17.8" x2="17.7" y2="16.8"/>
	<line class="st5" x1="20.7" y1="17.3" x2="18.5" y2="16.3"/>
	<line class="st5" x1="21.3" y1="16.8" x2="19.1" y2="15.8"/>
	<line class="st5" x1="22" y1="16.4" x2="19.8" y2="15.4"/>
	<line class="st5" x1="22.8" y1="15.9" x2="20.6" y2="14.9"/>
	<line class="st5" x1="23.7" y1="15.4" x2="21.5" y2="14.4"/>
	<line class="st5" x1="24.3" y1="14.9" x2="22.1" y2="13.9"/>
	<line class="st5" x1="25" y1="14.4" x2="22.8" y2="13.4"/>
	<line class="st5" x1="25.9" y1="14" x2="23.7" y2="13"/>
	<line class="st5" x1="26.9" y1="13.5" x2="24.7" y2="12.5"/>
	<line class="st5" x1="27.7" y1="13" x2="25.4" y2="12"/>
	<line class="st5" x1="28.3" y1="12.5" x2="26.1" y2="11.5"/>
	<line class="st5" x1="29.2" y1="12" x2="27" y2="11"/>
	<line class="st5" x1="29.9" y1="11.6" x2="27.7" y2="10.6"/>
	<line class="st5" x1="30.7" y1="11.1" x2="28.5" y2="10.1"/>
	<line class="st5" x1="31.4" y1="10.6" x2="29.2" y2="9.6"/>
	<line class="st5" x1="32.1" y1="10.1" x2="29.9" y2="9.1"/>
	<line class="st5" x1="32.7" y1="9.6" x2="30.5" y2="8.7"/>
	<line class="st5" x1="17" y1="22.8" x2="14.8" y2="21.8"/>
	<line class="st5" x1="17" y1="24.4" x2="14.8" y2="23.4"/>
	<line class="st5" x1="17.1" y1="26.7" x2="14.9" y2="25.7"/>
</g>
</svg>
