<?xml version="1.0" encoding="utf-8"?>
<!-- Generator: Adobe Illustrator 22.0.1, SVG Export Plug-In . SVG Version: 6.00 Build 0)  -->
<svg version="1.1" id="Layer_1" xmlns="http://www.w3.org/2000/svg" xmlns:xlink="http://www.w3.org/1999/xlink" x="0px" y="0px"
	 viewBox="0 0 50 50" style="enable-background:new 0 0 50 50;" xml:space="preserve">
<style type="text/css">
	.st0{fill:#FFFFFF;}
	.st1{fill:none;stroke:#1D1D1D;stroke-width:1.2;stroke-linecap:round;stroke-linejoin:round;stroke-miterlimit:10;}
	.st2{fill:none;stroke:#1D1D1D;stroke-width:1.2;stroke-linecap:round;stroke-miterlimit:10;}
</style>
<path class="st0" d="M47,50H3c-1.7,0-3-1.3-3-3V3c0-1.7,1.3-3,3-3h44c1.7,0,3,1.3,3,3v44C50,48.7,48.7,50,47,50z"/>
<g>
	<path class="st1" d="M23.6,28.9l0.1,1.2c0,0,2.6,0,4.4,0.7c2.7,1,4,2.7,4,2.7"/>
	<g>
		<path class="st2" d="M45,47H5c-1.1,0-2-0.9-2-2V5c0-1.1,0.9-2,2-2h40c1.1,0,2,0.9,2,2v40C47,46.1,46.1,47,45,47z"/>
		<path class="st2" d="M34.7,20.3"/>
		<path class="st1" d="M33.5,16.3c0,0,2.2,10.6-1.4,17.2c-2.9,5.4-10,8.7-10,8.7l-4-10.6C26.8,28,34.2,22.6,33.5,16.3
			c-0.7-6.4-10.7-8.2-10.7-8.2l-0.7,1.4c0,0,7.8,1.6,9.4,5.8c1.2,3.3,0.2,9.1-15.6,15.1l4.2,11.1l1.9,0.7"/>
		<line class="st1" x1="22.1" y1="9.5" x2="23.5" y2="26.7"/>
	</g>
	<line class="st1" x1="15.9" y1="30.4" x2="18.1" y2="31.6"/>
</g>
</svg>
