<?xml version="1.0" encoding="utf-8"?>
<!-- Generator: Adobe Illustrator 22.0.1, SVG Export Plug-In . SVG Version: 6.00 Build 0)  -->
<svg version="1.1" id="Layer_1" xmlns="http://www.w3.org/2000/svg" xmlns:xlink="http://www.w3.org/1999/xlink" x="0px" y="0px"
	 viewBox="0 0 50 50" style="enable-background:new 0 0 50 50;" xml:space="preserve">
<style type="text/css">
	.st0{fill:#FFFFFF;}
	.st1{fill:none;stroke:#1D1D1D;stroke-width:1.2;stroke-linecap:round;stroke-miterlimit:10;}
	.st2{fill:none;stroke:#1D1D1D;stroke-width:1.2;stroke-linecap:round;stroke-linejoin:round;stroke-miterlimit:10;}
	.st3{fill:none;stroke:#1D1D1D;stroke-width:1.2;stroke-miterlimit:10;}
</style>
<path class="st0" d="M47,50H3c-1.7,0-3-1.3-3-3V3c0-1.7,1.3-3,3-3h44c1.7,0,3,1.3,3,3v44C50,48.7,48.7,50,47,50z"/>
<path class="st1" d="M45,47H5c-1.1,0-2-0.9-2-2V5c0-1.1,0.9-2,2-2h40c1.1,0,2,0.9,2,2v40C47,46.1,46.1,47,45,47z"/>
<g>
	<polyline class="st2" points="17,38.4 16,38.4 16,12.5 32,8.5 	"/>
	<polygon class="st2" points="35.5,34.5 19.5,38.5 19.5,14.5 35.5,10.5 	"/>
	<line class="st2" x1="17" y1="42.4" x2="17" y2="38.4"/>
	<polyline class="st2" points="35,34.6 35,38.9 18.8,42.9 18.8,38.4 19.5,38.5 	"/>
	<line class="st2" x1="18.8" y1="42.9" x2="17" y2="42.6"/>
	<line class="st2" x1="16" y1="12.5" x2="19.5" y2="14.5"/>
	<line class="st2" x1="32" y1="8.5" x2="35.5" y2="10.5"/>
	<circle cx="22.5" cy="39.9" r="0.7"/>
	<circle cx="27.3" cy="38.8" r="0.7"/>
	<circle cx="32" cy="37.4" r="0.7"/>
	<circle cx="33.8" cy="22" r="0.7"/>
	<circle cx="33.8" cy="25.5" r="0.7"/>
	<path class="st3" d="M35.6,28.2l-2.3,0.6c-0.6,0.2-1.3-0.3-1.3-1v-8.7c0-0.4,0.3-0.8,0.7-1l2.9-0.8"/>
</g>
</svg>
