<?xml version="1.0" encoding="utf-8"?>
<!-- Generator: Adobe Illustrator 22.0.1, SVG Export Plug-In . SVG Version: 6.00 Build 0)  -->
<svg version="1.1" id="Layer_1" xmlns="http://www.w3.org/2000/svg" xmlns:xlink="http://www.w3.org/1999/xlink" x="0px" y="0px"
	 viewBox="0 0 50 50" style="enable-background:new 0 0 50 50;" xml:space="preserve">
<style type="text/css">
	.st0{fill:#FFFFFF;}
	.st1{fill:none;stroke:#1D1D1D;stroke-width:1.2;stroke-linecap:round;stroke-miterlimit:10;}
</style>
<path class="st0" d="M47,50H3c-1.7,0-3-1.3-3-3V3c0-1.7,1.3-3,3-3h44c1.7,0,3,1.3,3,3v44C50,48.7,48.7,50,47,50z"/>
<g>
	<path class="st1" d="M45,47H5c-1.1,0-2-0.9-2-2V5c0-1.1,0.9-2,2-2h40c1.1,0,2,0.9,2,2v40C47,46.1,46.1,47,45,47z"/>
	<path class="st1" d="M35,25c0,5.5-4.5,10-10,10c0,0,0-4.5,0-10s0-10,0-10C30.5,15,35,19.5,35,25z"/>
	<line class="st1" x1="37.2" y1="12.8" x2="34" y2="16"/>
	<line class="st1" x1="37.2" y1="36.3" x2="34" y2="33.1"/>
	<line class="st1" x1="41" y1="25" x2="37" y2="25"/>
	<line class="st1" x1="18.7" y1="36" x2="25" y2="31.3"/>
	<line class="st1" x1="25" y1="9" x2="25" y2="41"/>
	<line class="st1" x1="25" y1="18.7" x2="18.7" y2="14"/>
	<polyline class="st1" points="18.7,14 19.6,21.9 12.1,25 	"/>
	<polyline class="st1" points="12.1,25 19.6,28.1 18.7,36 	"/>
	<line class="st1" x1="9.5" y1="16.5" x2="17" y2="20"/>
	<line class="st1" x1="19.6" y1="21.9" x2="25" y2="25"/>
	<line class="st1" x1="19.6" y1="28.5" x2="25" y2="25.4"/>
	<polyline class="st1" points="14,14 14.1,18.7 10.5,21.3 	"/>
	<line class="st1" x1="9.5" y1="34" x2="17" y2="30"/>
	<polyline class="st1" points="10.5,28.5 14.1,31.6 14,36.5 	"/>
	<line class="st1" x1="23" y1="13" x2="19" y2="10"/>
	<line class="st1" x1="19" y1="40" x2="23" y2="37"/>
</g>
</svg>
