<?xml version="1.0" encoding="utf-8"?>
<!-- Generator: Adobe Illustrator 22.0.1, SVG Export Plug-In . SVG Version: 6.00 Build 0)  -->
<svg version="1.1" id="Layer_1" xmlns="http://www.w3.org/2000/svg" xmlns:xlink="http://www.w3.org/1999/xlink" x="0px" y="0px"
	 viewBox="0 0 50 50" style="enable-background:new 0 0 50 50;" xml:space="preserve">
<style type="text/css">
	.st0{fill:#FFFFFF;}
	.st1{fill:none;stroke:#1D1D1D;stroke-width:1.0006;stroke-linecap:round;stroke-miterlimit:10;}
	.st2{fill:none;stroke:#1D1D1D;stroke-linecap:round;stroke-linejoin:round;stroke-miterlimit:10;}
</style>
<path class="st0" d="M47,50H3c-1.7,0-3-1.3-3-3V3c0-1.7,1.3-3,3-3h44c1.7,0,3,1.3,3,3v44C50,48.7,48.7,50,47,50z"/>
<g>
	<path class="st1" d="M45,47H5c-1.1,0-2-0.9-2-2V5c0-1.1,0.9-2,2-2h40c1.1,0,2,0.9,2,2v40C47,46.1,46.1,47,45,47z"/>
	<path class="st2" d="M17.5,27L17,27.3c-1.8,0.8-3,2.7-3,4.9c0,3,2.4,5.3,5.3,5.3c2.7,0,3.8-0.5,4.8-3.2c1-3.1,1-6.3,7.1-4.5
		c0.8,0.2,1.6,0.6,2.4,0.6c2.5,0,4.5-2,4.5-4.5s-1.7-4.7-4.5-4.5c-2.3,0.1-4.5,2.1-6.9,1c-2.5-1.1-1.5-3-1.6-5.3
		c-0.2-2.8-2.1-4.5-4.5-4.5S14,16.4,18,20.2C19.3,21.3,23.1,25,17.5,27z"/>
</g>
</svg>
