<svg xmlns="http://www.w3.org/2000/svg" viewBox="0 0 47.7 47.7"><style>.starrowc0{fill:#183C83;}</style><path d="M46.5 22.6c-.7 0-1.2.6-1.2 1.3 0 5.9-2.4 11.2-6.3 15.1-3.9 3.9-9.2 6.3-15.1 6.3S12.7 42.9 8.8 39c-3.9-3.9-6.3-9.2-6.3-15.1S4.9 12.7 8.8 8.8c3.9-3.9 9.2-6.3 15.1-6.3 7.6 0 14.3 4 18.1 10h-9.7c-.7 0-1.3.6-1.3 1.3 0 .7.6 1.3 1.3 1.3h12.5c.3 0 .6-.1.9-.4.2-.2.4-.6.4-.9V1.3C46 .6 45.4 0 44.7 0s-1.2.6-1.2 1.3v9C39.1 4.1 32 0 23.9 0 10.7 0 0 10.7 0 23.9 0 37 10.7 47.7 23.9 47.7 37 47.7 47.7 37 47.7 23.9c0-.7-.6-1.3-1.2-1.3z" class="starrowc0"/></svg>